<svg xmlns="http://www.w3.org/2000/svg" xmlns:xlink="http://www.w3.org/1999/xlink" width="1384" height="86" viewBox="0 0 1384 86">
  <defs>
    <style>
      .cls-1, .cls-5 {
        fill: #fff;
      }

      .cls-2, .cls-4 {
        fill: #00bea6;
      }

      .cls-3, .cls-4 {
        font-size: 14px;
        font-family: OpenSans-Bold, Open Sans;
        font-weight: 700;
      }

      .cls-5 {
        font-size: 12px;
        font-family: OpenSans-Light, Open Sans;
        font-weight: 300;
      }

      .cls-6 {
        fill: #311f18;
      }

      .cls-7 {
        fill: #2c3d1f;
      }

      .cls-8 {
        fill: #35221b;
      }

      .cls-9 {
        fill: #301d17;
      }

      .cls-10 {
        fill: #43512f;
      }

      .cls-11 {
        fill: #394521;
      }

      .cls-12 {
        fill: #83ae89;
      }

      .cls-13 {
        fill: #2c4823;
      }

      .cls-14 {
        fill: #e0b160;
      }

      .cls-15 {
        fill: #b66831;
      }

      .cls-16 {
        fill: #4a893a;
      }

      .cls-17 {
        filter: url(#Rectangle_1);
      }
    </style>
    <filter id="Rectangle_1" x="0" y="0" width="1384" height="86" filterUnits="userSpaceOnUse">
      <feOffset dy="8" input="SourceAlpha"/>
      <feGaussianBlur stdDeviation="3" result="blur"/>
      <feFlood flood-opacity="0.161"/>
      <feComposite operator="in" in2="blur"/>
      <feComposite in="SourceGraphic"/>
    </filter>
  </defs>
  <g id="Group_48" data-name="Group 48" transform="translate(9 1)">
    <g class="cls-17" transform="matrix(1, 0, 0, 1, -9, -1)">
      <rect id="Rectangle_1-2" data-name="Rectangle 1" class="cls-1" width="1366" height="68" transform="translate(9 1)"/>
    </g>
    <rect id="Rectangle_48" data-name="Rectangle 48" class="cls-2" width="73" height="23" rx="11.5" transform="translate(1257 28)"/>
    <text id="BLOG" class="cls-3" transform="translate(972 45)"><tspan x="0" y="0">BLOG</tspan></text>
    <text id="ABOUT_US_" data-name="ABOUT US " class="cls-3" transform="translate(1035 45)"><tspan x="0" y="0">ABOUT US </tspan></text>
    <text id="Contact_us" data-name="Contact us" class="cls-3" transform="translate(1133 45)"><tspan x="0" y="0">CONTACT US</tspan></text>
    <text id="PRODUCTS" class="cls-3" transform="translate(873 45)"><tspan x="0" y="0">PRODUCTS</tspan></text>
    <text id="HOME" class="cls-4" transform="translate(806 45)"><tspan x="0" y="0">HOME</tspan></text>
    <text id="Recipes" class="cls-5" transform="translate(1273 44)"><tspan x="0" y="0">Recipes</tspan></text>
    <g id="Group_42" data-name="Group 42" transform="translate(34.051 -102.764)">
      <path id="Path_470" data-name="Path 470" class="cls-6" d="M91.049,208.824c-.108.788-.531.835-1.08.821-3.782-.1-7.565-.187-11.348-.013-.257.012-.631.148-.669-.3-.041-.483.367-.331.613-.365,1.632-.229,1.827-.321,1.855-1.967.067-3.954.061-7.911.014-11.866-.017-1.386-.229-1.529-1.579-1.778-.256-.048-.435-.072-.421-.39.015-.357.264-.314.487-.308,3.5.1,6.994.089,10.49.013.356-.008.526.1.557.466.073.856.167,1.709.253,2.564.021.21.027.407-.248.462-.256.051-.368-.1-.445-.3-.041-.106-.065-.219-.1-.33a2.442,2.442,0,0,0-2.411-1.95c-1.288-.057-2.578-.041-3.868-.059-.4-.006-.565.193-.564.582q.006,2.838,0,5.676c0,.451.234.6.649.586,1.088-.032,2.175,0,3.265-.076a1.189,1.189,0,0,0,1.238-1.145c.031-.2.081-.391.111-.589.04-.258.142-.422.445-.39.349.037.3.29.286.511-.035.629-.116,1.258-.115,1.887,0,.772.068,1.545.113,2.317.014.237.039.48-.253.557a.36.36,0,0,1-.476-.359c-.11-1.848-1.389-1.889-2.761-1.826-.629.029-1.262.022-1.892,0-.443-.013-.618.166-.613.608.017,1.634-.024,3.27.034,4.9.049,1.352.554,1.788,1.919,1.908a22.918,22.918,0,0,0,3.089.028,3.408,3.408,0,0,0,3-1.68,3.77,3.77,0,0,1,2.21-1.648c.946-.321,1.88-.678,2.82-1.017.269-.1.615-.165.635-.5A5.123,5.123,0,0,0,96.067,201a1.675,1.675,0,0,0-1.924-.78,1.279,1.279,0,0,0-1.285,1.235,1.452,1.452,0,0,1-1.612,1.2c-.343-.016-.467-.163-.428-.479a1.578,1.578,0,0,1,.095-.414c.722-1.709,4.28-3.123,5.964-2.353a2.476,2.476,0,0,1,1.355,2.564c-.024,1.633-.1,3.265-.151,4.9a3.3,3.3,0,0,0,.058.854c.229.957.782,1.245,1.717.919.151-.052.305-.257.445-.072s0,.369-.136.529a2.4,2.4,0,0,1-3.383.217c-.525-.59-.9-.494-1.447-.142a3.853,3.853,0,0,1-1.811.722A2.705,2.705,0,0,1,91.049,208.824Zm5.179-2.342a3.976,3.976,0,0,1,0-.6c.1-.664-.111-.889-.79-.676a9.588,9.588,0,0,0-2.048.829,1.294,1.294,0,0,0-.645,1.46,1.416,1.416,0,0,0,1.08,1.191C95.2,209.048,96.148,208.179,96.228,206.482Z" transform="translate(0 -53.326)"/>
      <path id="Path_471" data-name="Path 471" class="cls-7" d="M136.041,271.591q28.437,0,56.875.013c.378,0,1.071-.261,1.087.288.022.7-.711.372-1.09.373q-56.919.026-113.837.016a1.2,1.2,0,0,1-.172,0c-.309-.044-.818.161-.817-.341s.507-.341.819-.341q19.188-.01,38.376-.005Z" transform="translate(-0.104 -111.954)"/>
      <path id="Path_472" data-name="Path 472" class="cls-6" d="M479.229,203.209a18.129,18.129,0,0,1-.734-1.675,2.511,2.511,0,0,1,1.866-3.369,3.592,3.592,0,0,1,4.42,3.278c0,.057,0,.115,0,.172.06,1.922.06,1.922,2.025,1.921a6.439,6.439,0,0,0,.859-.007c.46-.063.625.167.637.569s-.221.516-.6.505c-.774-.023-1.549.01-2.323-.012-.437-.012-.616.138-.611.593.02,1.835-.036,3.672.031,5.506.068,1.881,1.143,2.512,2.886,1.781.156-.065.316-.215.458-.042s.061.344-.092.521a3.874,3.874,0,0,1-4.233.578,2.261,2.261,0,0,1-.938-2.014c-.012-2.007-.024-4.015,0-6.022.008-.633-.119-1.005-.852-.9-.193.027-.493.118-.528-.248-.03-.316.231-.362.44-.434a3.493,3.493,0,0,0,1.92-1.491,1.8,1.8,0,0,0-.78-2.776,3.421,3.421,0,0,0-1.76-.3,2.229,2.229,0,0,0-2.1,1.37,2.188,2.188,0,0,0,.617,2.434,3.242,3.242,0,0,1,.807,2.191c.016.174.117.423-.192.482-.264.05-.41-.054-.525-.31a2.452,2.452,0,0,0-1.465-1.474,1.713,1.713,0,0,0-2.1.668,1.514,1.514,0,0,0,.524,2.043c.8.6,1.694,1.066,2.506,1.648a2.976,2.976,0,0,1-1.62,5.484,9.7,9.7,0,0,1-1.375.011c-1.906-.111-2.7-1.12-2.413-3.017.029-.185.078-.338.266-.394.26-.077.357.1.434.3a4.627,4.627,0,0,0,1.05,1.748,2.078,2.078,0,0,0,2.928.1,1.854,1.854,0,0,0-.533-2.7c-.706-.533-1.5-.945-2.219-1.466a2.788,2.788,0,0,1-1.361-2.687,2.9,2.9,0,0,1,2.873-2.561C478.011,203.171,478.609,203.209,479.229,203.209Z" transform="translate(-294.276 -57.341)"/>
      <path id="Path_473" data-name="Path 473" class="cls-8" d="M334.108,198.631c-.113.377.331,1-.251,1.118-.688.145-.573-.612-.664-.977a1.509,1.509,0,0,0-1.552-1.311c-1.2-.03-2.407-.025-3.611-.039-.437-.005-.619.22-.617.638.009,2.034-.089,4.07.081,6.1.071.841.671,1.094,1.436,1.179.392.043,1.123-.246,1.1.425-.03.739-.734.285-1.1.287-1.834.009-3.667-.08-5.5.057-.272.02-.647.118-.7-.28-.063-.459.345-.439.649-.485,1.482-.222,1.7-.421,1.711-1.909q.032-6.406,0-12.813c-.007-1.44-.173-1.593-1.537-1.908-.249-.058-.623.023-.558-.452s.419-.3.666-.294q5.416.173,10.832.015c.466-.013.589.12.58.567-.018.888.022,1.777.031,2.665,0,.22.056.487-.292.511-.295.021-.359-.165-.435-.413-.586-1.935-1.068-2.305-3.107-2.369-1.031-.033-2.063-.012-3.095-.036-.537-.013-.768.193-.765.754.013,2.034-.013,4.068-.008,6.1,0,.311.042.657.491.665a17.268,17.268,0,0,0,4.588-.214c.819-.236.646-1.014.842-1.581.089-.258.128-.489.456-.5.377-.014.356.284.415.52q-.026.258-.051.516A14.047,14.047,0,0,0,334.108,198.631Z" transform="translate(-181.901 -49.816)"/>
      <path id="Path_474" data-name="Path 474" class="cls-9" d="M229.624,196.8a6.594,6.594,0,0,1,3.393-1.282c2.193-.024,3.381,1.07,3.426,3.258q.052,2.536.007,5.073c-.016.882.238,1.446,1.221,1.466.23,0,.569-.059.523.365-.043.4-.373.307-.6.289a24.193,24.193,0,0,0-4.12,0c-.238.022-.478.022-.519-.3-.045-.346.222-.359.446-.373.96-.057,1.135-.7,1.136-1.486,0-1.49.05-2.982-.005-4.471-.081-2.2-1.671-3.234-3.644-2.431a1.68,1.68,0,0,0-1.3,1.944c0,1.691.021,3.382,0,5.073-.009.762.2,1.279,1.058,1.353.226.02.571-.01.5.4-.062.384-.369.3-.609.276a24.209,24.209,0,0,0-3.948-.008c-.234.018-.555.121-.615-.261-.063-.4.257-.386.505-.394.936-.029,1.188-.6,1.187-1.421,0-4.356,0-8.713,0-13.07a1.434,1.434,0,0,0-.806-1.4c-.174-.086-.381-.192-.349-.439s.245-.272.438-.34a14.905,14.905,0,0,0,1.914-.724c.625-.321.77-.217.759.479-.041,2.522-.032,5.044-.039,7.566C229.583,196.2,229.607,196.45,229.624,196.8Z" transform="translate(-110.002 -49.674)"/>
      <path id="Path_475" data-name="Path 475" class="cls-9" d="M390.43,227.636l-.321-.039c-.115-.378-.118-.671.407-.693.893-.039,1.118-.608,1.111-1.4-.015-1.863-.005-3.726.009-5.589a1.247,1.247,0,0,0-.612-1.232.724.724,0,0,1-.431-.5l.18-.215a7.3,7.3,0,0,0,1.733-.814,1.277,1.277,0,0,0,.315-.111c.543-.373.777-.333.733.418-.063,1.065-.009,1.084.912.553a5.964,5.964,0,0,1,3.933-.832,3.107,3.107,0,0,1,2.01,3.216q.007,2.617.008,5.233c0,.672.2,1.164.98,1.251.223.025.67-.064.6.4-.072.495-.47.282-.754.271a18.1,18.1,0,0,0-3.93.085.38.38,0,0,1-.351-.484c.031-.246.236-.223.391-.236.993-.076,1.163-.733,1.154-1.561-.015-1.52.013-3.04-.007-4.559a2.231,2.231,0,0,0-1.273-2.249,3.126,3.126,0,0,0-3.141.519,1.768,1.768,0,0,0-.548,1.308c0,1.749-.008,3.5.008,5.247.006.606.145,1.128.9,1.239.219.032.667-.061.614.4-.059.518-.468.261-.745.289l-.254.027A13.5,13.5,0,0,0,390.43,227.636Z" transform="translate(-231.941 -71.28)"/>
      <path id="Path_476" data-name="Path 476" class="cls-10" d="M103.059,166.723q-11.915,0-23.83-.009c-.386,0-1.055.22-1.067-.362-.014-.668.685-.433,1.088-.433q23.616-.018,47.231-.01.473,0,.945.014c.259.008.463.117.449.4s-.2.392-.47.393-.516,0-.774,0Z" transform="translate(-0.159 -33.429)"/>
      <path id="Path_477" data-name="Path 477" class="cls-10" d="M361.454,166.71q-11.872,0-23.744-.012c-.371,0-1.028.265-1.041-.377-.013-.626.636-.417,1.015-.418q23.786-.011,47.573.015c.387,0,1.1-.287,1.083.416-.011.611-.68.361-1.057.362q-11.915.023-23.829.012Z" transform="translate(-192.272 -33.415)"/>
      <path id="Path_478" data-name="Path 478" class="cls-6" d="M440.893,217.866a3.927,3.927,0,0,1,3.162.481,2.993,2.993,0,0,1,1.569,2.5c.029.567-.164.828-.784.819-1.774-.024-3.55.03-5.324-.005-.761-.015-.994.254-.956,1a4.389,4.389,0,0,0,3.563,4.423,2.808,2.808,0,0,0,2.678-.783c.182-.188.356-.585.675-.333.372.294-.028.566-.182.792a4.734,4.734,0,0,1-4.98,1.665c-.165-.04-.334-.067-.5-.1a4.261,4.261,0,0,1-2.474-2.376A5.687,5.687,0,0,1,440.893,217.866Zm1.961,2.961c.8-.1.975-.416.709-1.161a1.516,1.516,0,0,0-1.023-.955,3.094,3.094,0,0,0-3.5,1.489c-.29.566-.166.778.47.735" transform="translate(-266.65 -71.978)"/>
      <path id="Path_479" data-name="Path 479" class="cls-6" d="M280.551,228.754c-.2,0-.4.01-.6,0-1.9-.1-2.715-1.126-2.422-3,.029-.185.058-.34.251-.4.248-.074.361.068.444.281a8.384,8.384,0,0,0,.345.782,3.153,3.153,0,0,0,.956,1.191,2.022,2.022,0,0,0,2.724-.167,1.883,1.883,0,0,0-.559-2.634c-.66-.5-1.4-.894-2.076-1.367-1.386-.965-1.827-2.075-1.4-3.441a3.154,3.154,0,0,1,3.051-1.942c.315-.008.63-.005.945.01,1.457.073,1.9.5,1.994,1.964.014.222.173.544-.2.649-.329.092-.429-.144-.556-.39a2.515,2.515,0,0,0-1.439-1.392,1.735,1.735,0,0,0-2.059.593,1.574,1.574,0,0,0,.422,2.065,13.8,13.8,0,0,0,2.014,1.3,3.688,3.688,0,0,1,1.834,2.27c.4,1.927-.789,3.4-2.894,3.615-.255.026-.515,0-.772,0Z" transform="translate(-148.278 -72.202)"/>
      <path id="Path_480" data-name="Path 480" class="cls-11" d="M289.135,156.341c.011.714.045,1.429.026,2.143a2.228,2.228,0,0,1-2.4,2.426q-5.406.036-10.812-.007a2.2,2.2,0,0,1-2.45-2.51c0-.627.023-1.255.036-1.883l.633-.005c.067.42.4.336.669.338.946.008,1.893,0,2.839,0,2.173,0,2.2-.033,1.943-2.213a1.234,1.234,0,0,0,.08-.754l.161-.136c.452-.026.407.137.27.495a1.635,1.635,0,0,0-.011,1c.051.165.3-.177.495-.127.435-.124.6-.51.825-.841,1.035.269.735,1.262,1.044,1.924-.064.443.045.67.575.659,1.6-.033,3.2-.009,4.793-.018.263,0,.6.1.666-.331A.9.9,0,0,0,289.135,156.341Zm-8.858,3.3c-.21-.435-.377-.724-.809-.474-.17.1-.377.392-.583.12-.163-.215.106-.414.182-.618s.2-.413.274-.628c.126-.36.008-.518-.4-.513-1.431.017-2.863.015-4.294.008-.326,0-.427.127-.46.452-.159,1.536.431,2.234,2.04,2.244,3.433.022,6.867.016,10.3,0,1.45-.005,2.043-.7,1.968-2.173-.021-.412-.157-.54-.558-.537-1.574.015-3.149.027-4.723-.007-.57-.013-.482.239-.41.62.092.487.623.8.571,1.447-.416-.252-.855-.519-1.167-.307-.488.332-.52.046-.672-.278-.1-.219-.243-.5-.554-.461-.258.032-.321.3-.42.5ZM281.765,155c-.929.825-2.011,1.388-1.777,2.772.03.178-.148.4.082.54s.38-.05.529-.166a.761.761,0,0,1,1.015.027c.123.087.177.35.4.23s.143-.358.12-.544C282.02,156.927,281.9,156,281.765,155Z" transform="translate(-145.324 -24.407)"/>
      <path id="Path_481" data-name="Path 481" class="cls-9" d="M201.705,218.851c0,.946-.039,1.895.009,2.839a1.755,1.755,0,0,0,2.689,1.635c.2-.089.438-.416.66-.073.2.31-.118.461-.3.613a3.672,3.672,0,0,1-3.479.664,1.913,1.913,0,0,1-1.476-2.063q-.054-3.054-.02-6.109c.008-.693-.124-1.13-.941-1-.189.03-.416.054-.446-.249-.027-.271.17-.352.36-.4a3.464,3.464,0,0,0,2.172-1.822c.112-.209.228-.393.525-.331.352.074.231.342.24.547.055,1.2.052,1.2,1.265,1.2.545,0,1.091.021,1.635,0,.391-.017.581.106.59.522s-.158.557-.562.545c-.688-.021-1.382.048-2.064-.018-.752-.073-.935.233-.892.925.053.857.013,1.721.013,2.581Z" transform="translate(-89.513 -68.103)"/>
      <path id="Path_482" data-name="Path 482" class="cls-6" d="M169.842,216.467v1.773c.608-.062.9-.54,1.325-.788a2.9,2.9,0,0,1,1.759-.571,1,1,0,0,1,1,1.134,1.1,1.1,0,0,1-1.341.978,1.794,1.794,0,0,1-.322-.114c-1.593-.7-2.226-.39-2.339,1.344s-.029,3.491-.04,5.237c-.006.972.635,1.149,1.413,1.213.232.019.65-.149.612.351-.036.473-.412.3-.66.288a35.619,35.619,0,0,0-4.205-.013c-.235.015-.551.133-.627-.243-.081-.4.257-.4.491-.421.844-.083,1.066-.587,1.055-1.359-.028-1.89-.022-3.78-.005-5.669a1.2,1.2,0,0,0-.557-1.165c-.526-.323-.57-.595.064-.865C168.239,217.245,168.995,216.865,169.842,216.467Z" transform="translate(-65.736 -71.024)"/>
      <path id="Path_483" data-name="Path 483" class="cls-6" d="M374.782,258.8" transform="translate(-220.596 -102.483)"/>
      <path id="Path_484" data-name="Path 484" class="cls-6" d="M380.763,258.621" transform="translate(-225.041 -102.351)"/>
      <path id="Path_485" data-name="Path 485" class="cls-6" d="M369.034,228.485c-.267-.087-.69.228-.8-.2-.151-.58.411-.423.677-.5.713-.218.818-.8.829-1.38.033-1.66-.024-3.323.037-4.982a1.779,1.779,0,0,0-.943-1.831l.02-.352a12.966,12.966,0,0,0,2.43-1.2.181.181,0,0,0,.162-.037c.4.066.272.362.258.6-.152,2.571-.049,5.145-.075,7.718-.008.83.172,1.428,1.171,1.537.611.067.481.41.064.683h-.022l-.535-.061" transform="translate(-215.71 -72.161)"/>
      <path id="Path_486" data-name="Path 486" class="cls-8" d="M273.366,191.575a3.821,3.821,0,0,1-2.773,3.332c-.2.044-.337.053-.412-.147a.33.33,0,0,1,.152-.436,8.867,8.867,0,0,0,1.006-.636,1.746,1.746,0,0,0,.72-1.807,1.375,1.375,0,0,0-1.278-1.08.652.652,0,0,1-.616-.774.944.944,0,0,1,.834-.93C272.272,188.853,273.39,190.02,273.366,191.575Z" transform="translate(-142.839 -50.66)"/>
      <path id="Path_487" data-name="Path 487" class="cls-7" d="M289.068,122.5a1.987,1.987,0,0,0-1.951-1.567c-3.842-.053-7.686-.043-11.529-.016a1.84,1.84,0,0,0-2.023,1.513c-.022.417-.045.47-.045.628q.01,4.521.03,9.041l.633-.005q.011-4.645.022-9.29h0a1.748,1.748,0,0,1,1.851-1.214c3.5.022,6.99.007,10.486.011,1.4,0,1.957.566,1.963,1.989q.018,4.254.03,8.507a.9.9,0,0,0,.619-.166c.012-2.546.031-5.093.027-7.639" transform="translate(-145.343)"/>
      <path id="Path_488" data-name="Path 488" class="cls-8" d="M374.094,202.763a1.419,1.419,0,0,1,.637,1.837c-.25.654-.857.727-1.5.706s-.7-.553-.956-.92C372.33,203.089,372.737,202.725,374.094,202.763Z" transform="translate(-218.735 -60.838)"/>
      <path id="Path_489" data-name="Path 489" class="cls-11" d="M333.931,127.4l-.065-.273Z" transform="translate(-190.189 -4.629)"/>
      <path id="Path_490" data-name="Path 490" class="cls-12" d="M276.1,134.109q.011-4.645.022-9.29a1.748,1.748,0,0,1,1.851-1.214c3.495.022,6.99.007,10.486.011,1.4,0,1.957.566,1.963,1.989q.018,4.254.03,8.507c-.064.427-.4.329-.666.331-1.6.009-3.2-.015-4.793.018-.53.011-.64-.215-.575-.659.559.5.888.309,1.06-.354a5.256,5.256,0,0,0,.25-.992c.022-.406.158-.464.53-.393.919.174,1.123.051.867-.765a1.145,1.145,0,0,1,.8-1.66c.5-.2.59-.586.067-.861a1.089,1.089,0,0,1-.563-1.621c.174-.408.061-.888-.553-.7-.787.24-.8-.173-.746-.729a3,3,0,0,0-.017-.514c-.042-.522-.281-.672-.724-.352-.338.244-.659.511-1.023.795-.135-.376-.243-.694-.363-1.008-.227-.595-.555-.619-.881-.1-.316.5-.571,1.045-.843,1.553-.453-.263-.888-.533-1.341-.771-.223-.117-.513-.282-.73-.122-.258.19-.134.536-.085.8.071.387.207.763.326,1.179-.182.018-.322.034-.461.047-.624.059-1.472.029-1.7.568-.262.621.627.884.993,1.321a.923.923,0,0,1,.057.089c-.081.071-.163.146-.247.218-.3.259-.745.484-.688.917.063.478.6.528.959.567.8.088.464.477.313.86-.073.185-.1.387-.158.578-.167.536.088.6.529.495a6.054,6.054,0,0,0,1.505-.611c.259,2.18.231,2.212-1.943,2.213-.946,0-1.893.006-2.839,0C276.5,134.445,276.171,134.529,276.1,134.109Z" transform="translate(-147.262 -2.012)"/>
      <path id="Path_491" data-name="Path 491" class="cls-13" d="M287.747,133.893a6.056,6.056,0,0,1-1.505.61c-.441.1-.7.041-.529-.495.059-.191.085-.393.158-.578.151-.383.486-.772-.313-.86-.355-.039-.9-.089-.959-.567-.057-.434.389-.658.688-.917.084-.072.166-.147.247-.218a.919.919,0,0,0-.057-.089c-.365-.437-1.255-.7-.993-1.321.228-.54,1.076-.51,1.7-.568.139-.013.279-.028.461-.047-.119-.416-.255-.791-.326-1.179-.049-.267-.173-.613.085-.8.217-.16.507.005.73.122.453.238.889.508,1.341.771.273-.508.527-1.05.843-1.553.326-.518.654-.493.881.1.12.314.228.632.363,1.008.364-.284.685-.551,1.023-.795.443-.32.682-.171.724.352a3,3,0,0,1,.017.514c-.052.556-.041.969.746.729.614-.188.727.292.553.7a1.089,1.089,0,0,0,.563,1.621c.523.275.433.661-.067.861a1.145,1.145,0,0,0-.8,1.66c.256.815.052.938-.867.765-.372-.07-.508-.012-.53.393a5.256,5.256,0,0,1-.25.992c-.172.663-.5.851-1.06.354-.309-.663-.009-1.656-1.044-1.924a9.539,9.539,0,0,0,.169-1.095c.012-.261.141-.654-.219-.743-.3-.074-.355.312-.489.515a3.123,3.123,0,0,0-.286,2.165c-.2-.05-.444.292-.495.127a1.635,1.635,0,0,1,.01-1c.137-.358.183-.521-.27-.495.067-.4.526-.66.426-1.162a1.708,1.708,0,0,0-1.224.544c-.362.414-1.047.932-.69,1.353.3.356.922-.257,1.327-.6A1.234,1.234,0,0,1,287.747,133.893Zm5.034-.769a2.674,2.674,0,0,0-.435-1.321c-.155-.227-.269-.495.192-.518.426-.021,1.038-.006,1.044-.476.005-.422-.617-.482-1.035-.565a.811.811,0,0,1-.182-.105c.164-.23.331-.452.485-.682.132-.2.246-.433.069-.63-.2-.219-.426-.04-.621.063a1.032,1.032,0,0,0-.561.621c-.192.73-1.034,1.233-.8,2.092A1.851,1.851,0,0,0,292.781,133.124Zm-5.763-5.516c-.126,1.119,1,1.959,1.685,2.2a.6.6,0,0,0,.7-.154,2.706,2.706,0,0,0,.255-2.936,2.2,2.2,0,0,0-.591,1.469c-.03.269.145.666-.172.771-.359.117-.481-.316-.673-.54A2.008,2.008,0,0,0,287.018,127.608Zm0,3.029c.071,0,.186-.005.3-.021.245-.034.575.023.634-.3s-.28-.386-.479-.529a2.293,2.293,0,0,0-1.3-.356c-.3-.012-.737.008-.82.309-.112.406.343.518.627.687A2.013,2.013,0,0,0,287.013,130.637Zm4.719-3.482a2.54,2.54,0,0,0-1.273,2.045c-.023.155-.079.362.134.445.156.061.26-.074.366-.164A2.328,2.328,0,0,0,291.732,127.155Zm-1.312,6.415a1.424,1.424,0,0,0,.519,1.233c.091.07.226.091.289-.045a1.411,1.411,0,0,0,.092-1.23.32.32,0,0,1-.018-.083c-.049-.338-.251-.679-.556-.634C290.391,132.862,290.45,133.3,290.42,133.57Zm-4.244-1.426c.456-.078.992-.131,1.079-.658.06-.363-.377-.348-.651-.336-.46.021-1.011.082-1.123.577C285.4,132.116,285.886,132.081,286.177,132.144Z" transform="translate(-153.455 -3.668)"/>
      <path id="Path_492" data-name="Path 492" class="cls-14" d="M282.215,170.593l.29-.6c.1-.2.162-.469.42-.5.311-.038.451.242.554.461.152.324.184.61.672.278.312-.211.751.055,1.167.307.051-.652-.479-.96-.571-1.447-.072-.381-.161-.633.41-.62,1.574.034,3.149.022,4.723.007.4,0,.537.125.558.537.075,1.47-.518,2.168-1.968,2.173-3.433.012-6.867.017-10.3,0-1.608-.01-2.2-.708-2.04-2.244.033-.325.134-.453.46-.452,1.431.006,2.863.009,4.294-.008.4,0,.522.153.4.513-.075.215-.194.414-.274.628s-.344.4-.182.618c.206.272.413-.022.583-.12C281.838,169.87,282.006,170.158,282.215,170.593Z" transform="translate(-147.262 -35.356)"/>
      <path id="Path_493" data-name="Path 493" class="cls-15" d="M300.442,158.632c.13,1.006.255,1.931.365,2.859.022.187.1.422-.12.544s-.272-.143-.4-.23a.761.761,0,0,0-1.015-.027c-.149.116-.3.3-.529.166s-.052-.362-.082-.54C298.431,160.02,299.513,159.457,300.442,158.632Z" transform="translate(-164.001 -28.043)"/>
      <path id="Path_494" data-name="Path 494" class="cls-16" d="M293.511,150.524c-.4.342-1.024.956-1.327.6-.357-.421.328-.939.69-1.353a1.708,1.708,0,0,1,1.224-.544c.1.5-.359.763-.426,1.162Z" transform="translate(-159.138 -21.053)"/>
      <path id="Path_495" data-name="Path 495" class="cls-16" d="M301.028,151.31a3.123,3.123,0,0,1,.286-2.165c.134-.2.187-.589.489-.515.36.089.231.482.219.743a9.533,9.533,0,0,1-.169,1.095C301.631,150.8,301.463,151.186,301.028,151.31Z" transform="translate(-165.74 -20.603)"/>
      <path id="Path_496" data-name="Path 496" class="cls-12" d="M371.426,258.832" transform="translate(-218.102 -102.508)"/>
      <path id="Path_497" data-name="Path 497" class="cls-12" d="M372.691,258.706" transform="translate(-219.042 -102.414)"/>
      <path id="Path_498" data-name="Path 498" class="cls-12" d="M383.724,258.75l-.153-.014" transform="translate(-227.128 -102.437)"/>
      <path id="Path_499" data-name="Path 499" class="cls-16" d="M311.474,141.483a1.851,1.851,0,0,1-1.844-1.522c-.232-.859.61-1.361.8-2.092a1.032,1.032,0,0,1,.561-.62c.195-.1.425-.281.621-.063.176.2.062.434-.069.63-.154.23-.321.453-.485.682a.812.812,0,0,0,.182.105c.418.082,1.04.143,1.035.565-.006.471-.618.456-1.044.476-.461.023-.347.291-.192.518A2.674,2.674,0,0,1,311.474,141.483Z" transform="translate(-172.148 -12.028)"/>
      <path id="Path_500" data-name="Path 500" class="cls-16" d="M294.459,130.175a2.008,2.008,0,0,1,1.2.812c.192.223.314.657.673.54.317-.1.143-.5.172-.771a2.2,2.2,0,0,1,.591-1.469,2.706,2.706,0,0,1-.255,2.936.6.6,0,0,1-.7.154C295.461,132.134,294.333,131.294,294.459,130.175Z" transform="translate(-160.896 -6.235)"/>
      <path id="Path_501" data-name="Path 501" class="cls-16" d="M289.6,141.032a2.013,2.013,0,0,1-1.036-.212c-.285-.169-.739-.281-.627-.687.083-.3.518-.321.82-.309a2.292,2.292,0,0,1,1.3.356c.2.144.537.211.479.529s-.389.268-.634.3C289.79,141.027,289.675,141.028,289.6,141.032Z" transform="translate(-156.045 -14.064)"/>
      <path id="Path_502" data-name="Path 502" class="cls-16" d="M309.091,130.979a2.328,2.328,0,0,1-.773,2.327c-.106.09-.21.225-.366.164-.212-.083-.156-.291-.134-.445A2.54,2.54,0,0,1,309.091,130.979Z" transform="translate(-170.813 -7.492)"/>
      <path id="Path_503" data-name="Path 503" class="cls-16" d="M307.735,153.748c.03-.274-.029-.708.325-.759.3-.044.508.3.556.634a.323.323,0,0,0,.018.083,1.411,1.411,0,0,1-.092,1.23c-.063.136-.2.115-.289.045A1.424,1.424,0,0,1,307.735,153.748Z" transform="translate(-170.769 -23.846)"/>
      <path id="Path_504" data-name="Path 504" class="cls-16" d="M289.174,147.516c-.29-.064-.781-.029-.694-.416.111-.495.662-.556,1.123-.577.273-.012.711-.027.651.336C290.165,147.385,289.63,147.438,289.174,147.516Z" transform="translate(-156.452 -19.04)"/>
    </g>
  </g>
</svg>
